<?xml version="1.0" encoding="UTF-8"?>
<svg width="57px" height="29px" viewBox="0 0 57 29" version="1.1" xmlns="http://www.w3.org/2000/svg" xmlns:xlink="http://www.w3.org/1999/xlink">
    <!-- Generator: Sketch 49.3 (51167) - http://www.bohemiancoding.com/sketch -->
    <title>Helper</title>
    <desc>Created with Sketch.</desc>
    <defs>
        <rect id="path-1" x="0" y="3" width="57" height="26" rx="2"></rect>
        <rect id="path-2" x="0" y="0" width="57" height="26" rx="2"></rect>
    </defs>
    <g id="Page-1" stroke="none" stroke-width="1" fill="none" fill-rule="evenodd">
        <g id="Lobby" transform="translate(-383.000000, -573.000000)">
            <g id="Left" transform="translate(160.000000, 331.000000)">
                <g id="DO" transform="translate(0.000000, 233.000000)">
                    <g id="Helper" transform="translate(223.000000, 9.000000)">
                        <g id="Rectangle">
                            <use fill="#FFFFFF" fill-rule="evenodd" xlink:href="#path-1"></use>
                            <rect stroke="#8C8C8C" stroke-width="1" x="0.5" y="3.5" width="56" height="25" rx="2"></rect>
                        </g>
                        <g id="Rectangle-Copy">
                            <use fill="#FFFFFF" fill-rule="evenodd" xlink:href="#path-2"></use>
                            <rect stroke="#8C8C8C" stroke-width="1" x="0.5" y="0.5" width="56" height="25" rx="2"></rect>
                        </g>
                        <path d="M8.34,17.09 L13.735,17.09 L13.735,18 L7.365,18 L7.365,8.9 L13.605,8.9 L13.605,9.81 L8.34,9.81 L8.34,12.8 L12.565,12.8 L12.565,13.71 L8.34,13.71 L8.34,17.09 Z M16.335,11.76 L16.335,12.67 C16.335,12.67 16.985,11.63 18.35,11.63 C19.845,11.63 20.885,12.67 20.885,14.295 L20.885,18 L19.975,18 L19.975,14.295 C19.975,13.19 19.26,12.475 18.285,12.475 C17.18,12.475 16.335,13.32 16.335,14.555 L16.335,18 L15.425,18 L15.425,11.76 L16.335,11.76 Z M23.68,11.11 L23.68,9.68 L24.525,9.68 L24.525,11.76 L25.89,11.76 L25.89,12.605 L24.525,12.605 L24.525,16.31 C24.525,16.96 24.85,17.285 25.37,17.285 C25.825,17.285 26.215,17.09 26.215,17.09 L26.215,17.935 C26.215,17.935 25.825,18.13 25.331,18.13 C24.265,18.13 23.615,17.48 23.615,16.31 L23.615,12.605 L22.445,12.605 L22.445,11.76 L23.16,11.76 C23.485,11.76 23.68,11.565 23.68,11.11 Z M32.3249985,16.245 C32.3249985,16.245 32.3249985,16.245 32.3249985,16.245 Z M32.325,16.245 L32.91,16.83 C32.91,16.83 32,18.13 30.31,18.13 C28.62,18.13 27.19,16.7 27.19,14.88 C27.19,13.06 28.62,11.63 30.245,11.63 C31.935,11.63 33.235,12.93 33.235,14.75 C33.235,15.01 33.17,15.218 33.17,15.218 L28.1,15.205 C28.165,16.31 29.14,17.285 30.31,17.285 C31.6219123,17.285 32.3238365,16.2467224 32.3249985,16.2450021 L32.325,16.245 Z M30.245,12.475 C29.14,12.475 28.23,13.385 28.1,14.425 L32.325,14.425 C32.195,13.32 31.35,12.475 30.245,12.475 Z M38.24,11.63 L38.24,12.54 L37.85,12.54 C36.81,12.54 35.9,13.32 35.9,14.555 L35.9,18 L34.99,18 L34.99,11.76 L35.9,11.76 L35.9,12.605 C35.9,12.605 36.55,11.63 37.98,11.63 L38.24,11.63 Z" id="Enter" fill="#000000" opacity="0.600000024"></path>
                        <path d="M50.0288086,5.59838867 L50.0288086,17.9503776 C50.0288086,19.0549471 49.1333781,19.9503776 48.0288086,19.9503776 L44.9051929,19.9503776" id="Path-2" stroke="#000000" opacity="0.400000006"></path>
                    </g>
                </g>
            </g>
        </g>
    </g>
</svg>