<?xml version="1.0" encoding="UTF-8"?>
<svg width="57px" height="29px" viewBox="0 0 57 29" version="1.1" xmlns="http://www.w3.org/2000/svg" xmlns:xlink="http://www.w3.org/1999/xlink">
    <!-- Generator: Sketch 49.3 (51167) - http://www.bohemiancoding.com/sketch -->
    <title>Helper</title>
    <desc>Created with Sketch.</desc>
    <defs>
        <rect id="path-1" x="0" y="3" width="57" height="26" rx="2"></rect>
        <rect id="path-2" x="0" y="0" width="57" height="26" rx="2"></rect>
    </defs>
    <g id="Page-1" stroke="none" stroke-width="1" fill="none" fill-rule="evenodd">
        <g id="Lobby-Stats" transform="translate(-283.000000, -412.000000)">
            <g id="Help" transform="translate(72.000000, 94.000000)">
                <g id="GOGOGO" transform="translate(42.000000, 315.000000)">
                    <g id="Helper" transform="translate(169.000000, 3.000000)">
                        <g id="Rectangle">
                            <use fill="#FFFFFF" fill-rule="evenodd" xlink:href="#path-1"></use>
                            <rect stroke="#8C8C8C" stroke-width="1" x="0.5" y="3.5" width="56" height="25" rx="2"></rect>
                        </g>
                        <g id="Rectangle-Copy">
                            <use fill="#FFFFFF" fill-rule="evenodd" xlink:href="#path-2"></use>
                            <rect stroke="#8C8C8C" stroke-width="1" x="0.5" y="0.5" width="56" height="25" rx="2"></rect>
                        </g>
                        <path d="M8.79250001,17.09 L14.1875,17.09 L14.1875,18 L7.81750001,18 L7.81750001,8.9 L14.0575,8.9 L14.0575,9.81 L8.79250001,9.81 L8.79250001,12.8 L13.0175,12.8 L13.0175,13.71 L8.79250001,13.71 L8.79250001,17.09 Z M19.6475,12.475 L18.9975,13.125 C18.9975,13.125 18.5425,12.475 17.6325,12.475 C16.9175,12.475 16.4625,12.93 16.4625,13.385 C16.4625,14.75 19.8425,14.035 19.8425,16.245 C19.8425,17.285 18.9975,18.13 17.5675,18.13 C16.0075,18.13 15.2925,17.025 15.2925,17.025 L15.9425,16.375 C15.9425,16.375 16.5275,17.285 17.5675,17.285 C18.4775,17.285 18.9325,16.83 18.9325,16.245 C18.9325,14.815 15.5525,15.53 15.5525,13.385 C15.5525,12.475 16.3975,11.63 17.6325,11.63 C18.9325,11.63 19.6475,12.475 19.6475,12.475 Z M21.1425,14.88 C21.1425,13.06 22.5725,11.63 24.2625,11.63 C25.8875,11.63 26.7975,12.865 26.7975,12.865 L26.1475,13.515 C26.1475,13.515 25.4975,12.475 24.2625,12.475 C23.0925,12.475 22.0525,13.515 22.0525,14.88 C22.0525,16.245 23.0925,17.285 24.2625,17.285 C25.4975,17.285 26.2125,16.245 26.2125,16.245 L26.8625,16.83 C26.8625,16.83 25.8875,18.13 24.2625,18.13 C22.5725,18.13 21.1425,16.7 21.1425,14.88 Z M29.7875,14.425 L32.1925,14.035 C32.1925,13.125 31.5425,12.475 30.6325,12.475 C29.5275,12.475 28.8775,13.385 28.8775,13.385 L28.2925,12.8 C28.2925,12.8 29.1375,11.63 30.6325,11.63 C32.0625,11.63 33.1025,12.67 33.1025,14.035 L33.1025,18 L32.1925,18 L32.1925,17.155 C32.1925,17.155 31.5425,18.13 30.1775,18.13 C28.8775,18.13 27.9675,17.22 27.9675,16.31 C27.9675,15.27 28.6175,14.62 29.7875,14.425 Z M30.1775,17.285 C31.3475,17.285 32.1925,16.44 32.1925,15.205 L32.1925,14.815 L30.0475,15.205 C29.2675,15.348 28.8775,15.725 28.8775,16.31 C28.8775,16.83 29.3325,17.285 30.1775,17.285 Z M36.2225,14.88 C36.2225,16.18 37.3275,17.285 38.4325,17.285 C39.4725,17.285 40.5125,16.245 40.5125,14.88 C40.5125,13.515 39.4725,12.475 38.4325,12.475 C37.3275,12.475 36.2225,13.58 36.2225,14.88 Z M36.2225,17.025 L36.2225,20.73 L35.3125,20.73 L35.3125,11.76 L36.2225,11.76 L36.2225,12.735 C36.2225,12.735 37.0025,11.63 38.4325,11.63 C39.9925,11.63 41.4225,13.06 41.4225,14.88 C41.4225,16.7 39.9925,18.13 38.4325,18.13 C37.0025,18.13 36.2225,17.025 36.2225,17.025 Z M47.8574983,16.245 C47.8574983,16.245 47.8574983,16.245 47.8574983,16.245 Z M47.8575,16.245 L48.4425,16.83 C48.4425,16.83 47.5325,18.13 45.8425,18.13 C44.1525,18.13 42.7225,16.7 42.7225,14.88 C42.7225,13.06 44.1525,11.63 45.7775,11.63 C47.4675,11.63 48.7675,12.93 48.7675,14.75 C48.7675,15.01 48.7025,15.218 48.7025,15.218 L43.6325,15.205 C43.6975,16.31 44.6725,17.285 45.8425,17.285 C47.1543285,17.285 47.8562468,16.246855 47.8574983,16.2450025 L47.8575,16.245 Z M45.7775,12.475 C44.6725,12.475 43.7625,13.385 43.6325,14.425 L47.8575,14.425 C47.7275,13.32 46.8825,12.475 45.7775,12.475 Z" id="Escape-Copy" fill="#666666"></path>
                    </g>
                </g>
            </g>
        </g>
    </g>
</svg>