<?xml version="1.0" encoding="UTF-8"?>
<svg width="7px" height="11px" viewBox="0 0 7 11" version="1.1" xmlns="http://www.w3.org/2000/svg" xmlns:xlink="http://www.w3.org/1999/xlink">
    <!-- Generator: Sketch 49.3 (51167) - http://www.bohemiancoding.com/sketch -->
    <title>?</title>
    <desc>Created with Sketch.</desc>
    <defs></defs>
    <g id="Page-1" stroke="none" stroke-width="1" fill="none" fill-rule="evenodd">
        <g id="Lobby-Stats" transform="translate(-82.000000, -105.000000)" fill="#000000">
            <g id="Help" transform="translate(72.000000, 94.000000)">
                <path d="M12.665,18.01 C12.665,16.06 15.005,15.93 15.005,14.37 C15.005,13.655 14.42,13.07 13.51,13.07 C12.015,13.07 11.69,14.37 11.69,14.37 L10.52,13.915 C10.52,13.915 11.04,11.77 13.51,11.77 C15.265,11.77 16.435,12.94 16.435,14.24 C16.435,16.84 13.9,16.45 13.9,18.465 L13.9,18.595 L12.73,18.595 C12.73,18.595 12.665,18.27 12.665,18.01 Z M12.47,20.285 C12.47,19.83 12.86,19.44 13.315,19.44 C13.77,19.44 14.16,19.83 14.16,20.285 C14.16,20.74 13.77,21.13 13.315,21.13 C12.86,21.13 12.47,20.74 12.47,20.285 Z" id="?"></path>
            </g>
        </g>
    </g>
</svg>